<svg width="123" height="36" viewBox="0 0 123 36" fill="none" xmlns="http://www.w3.org/2000/svg">
<path d="M11.976 23.024H5.688L4.68 26H0.384L6.48 9.152H11.232L17.328 26H12.984L11.976 23.024ZM10.92 19.856L8.832 13.688L6.768 19.856H10.92ZM18.3673 19.304C18.3673 17.912 18.6473 16.696 19.2073 15.656C19.7833 14.616 20.5753 13.816 21.5833 13.256C22.6073 12.696 23.7753 12.416 25.0873 12.416C26.7673 12.416 28.1673 12.856 29.2873 13.736C30.4233 14.616 31.1673 15.856 31.5193 17.456H27.1513C26.7833 16.432 26.0713 15.92 25.0153 15.92C24.2633 15.92 23.6633 16.216 23.2153 16.808C22.7673 17.384 22.5433 18.216 22.5433 19.304C22.5433 20.392 22.7673 21.232 23.2153 21.824C23.6633 22.4 24.2633 22.688 25.0153 22.688C26.0713 22.688 26.7833 22.176 27.1513 21.152H31.5193C31.1673 22.72 30.4233 23.952 29.2873 24.848C28.1513 25.744 26.7513 26.192 25.0873 26.192C23.7753 26.192 22.6073 25.912 21.5833 25.352C20.5753 24.792 19.7833 23.992 19.2073 22.952C18.6473 21.912 18.3673 20.696 18.3673 19.304ZM41.1786 22.52V26H39.0906C37.6026 26 36.4426 25.64 35.6106 24.92C34.7786 24.184 34.3626 22.992 34.3626 21.344V16.016H32.7306V12.608H34.3626V9.344H38.4666V12.608H41.1546V16.016H38.4666V21.392C38.4666 21.792 38.5626 22.08 38.7546 22.256C38.9466 22.432 39.2666 22.52 39.7146 22.52H41.1786ZM51.6246 12.464C53.1926 12.464 54.4406 12.976 55.3686 14C56.3126 15.008 56.7846 16.4 56.7846 18.176V26H52.7046V18.728C52.7046 17.832 52.4726 17.136 52.0086 16.64C51.5446 16.144 50.9206 15.896 50.1366 15.896C49.3526 15.896 48.7286 16.144 48.2646 16.64C47.8006 17.136 47.5686 17.832 47.5686 18.728V26H43.4646V12.608H47.5686V14.384C47.9846 13.792 48.5446 13.328 49.2486 12.992C49.9526 12.64 50.7446 12.464 51.6246 12.464ZM63.7404 8.24V26H59.6364V8.24H63.7404ZM72.8106 26.192C71.4986 26.192 70.3146 25.912 69.2586 25.352C68.2186 24.792 67.3946 23.992 66.7866 22.952C66.1946 21.912 65.8986 20.696 65.8986 19.304C65.8986 17.928 66.2026 16.72 66.8106 15.68C67.4186 14.624 68.2506 13.816 69.3066 13.256C70.3626 12.696 71.5466 12.416 72.8586 12.416C74.1706 12.416 75.3546 12.696 76.4106 13.256C77.4666 13.816 78.2986 14.624 78.9066 15.68C79.5146 16.72 79.8186 17.928 79.8186 19.304C79.8186 20.68 79.5066 21.896 78.8826 22.952C78.2746 23.992 77.4346 24.792 76.3626 25.352C75.3066 25.912 74.1226 26.192 72.8106 26.192ZM72.8106 22.64C73.5946 22.64 74.2586 22.352 74.8026 21.776C75.3626 21.2 75.6426 20.376 75.6426 19.304C75.6426 18.232 75.3706 17.408 74.8266 16.832C74.2986 16.256 73.6426 15.968 72.8586 15.968C72.0586 15.968 71.3946 16.256 70.8666 16.832C70.3386 17.392 70.0746 18.216 70.0746 19.304C70.0746 20.376 70.3306 21.2 70.8426 21.776C71.3706 22.352 72.0266 22.64 72.8106 22.64ZM87.0838 12.416C88.0278 12.416 88.8518 12.608 89.5558 12.992C90.2758 13.376 90.8278 13.88 91.2118 14.504V12.608H95.3158V25.976C95.3158 27.208 95.0678 28.32 94.5718 29.312C94.0918 30.32 93.3478 31.12 92.3398 31.712C91.3478 32.304 90.1078 32.6 88.6198 32.6C86.6358 32.6 85.0278 32.128 83.7958 31.184C82.5638 30.256 81.8598 28.992 81.6838 27.392H85.7398C85.8678 27.904 86.1718 28.304 86.6518 28.592C87.1318 28.896 87.7238 29.048 88.4278 29.048C89.2758 29.048 89.9478 28.8 90.4438 28.304C90.9558 27.824 91.2118 27.048 91.2118 25.976V24.08C90.8118 24.704 90.2598 25.216 89.5558 25.616C88.8518 26 88.0278 26.192 87.0838 26.192C85.9798 26.192 84.9798 25.912 84.0838 25.352C83.1878 24.776 82.4758 23.968 81.9478 22.928C81.4358 21.872 81.1798 20.656 81.1798 19.28C81.1798 17.904 81.4358 16.696 81.9478 15.656C82.4758 14.616 83.1878 13.816 84.0838 13.256C84.9798 12.696 85.9798 12.416 87.0838 12.416ZM91.2118 19.304C91.2118 18.28 90.9238 17.472 90.3478 16.88C89.7878 16.288 89.0998 15.992 88.2838 15.992C87.4678 15.992 86.7718 16.288 86.1958 16.88C85.6358 17.456 85.3558 18.256 85.3558 19.28C85.3558 20.304 85.6358 21.12 86.1958 21.728C86.7718 22.32 87.4678 22.616 88.2838 22.616C89.0998 22.616 89.7878 22.32 90.3478 21.728C90.9238 21.136 91.2118 20.328 91.2118 19.304Z" fill="white"/>
<path d="M106.832 21.432C106.971 21.432 107.077 21.496 107.152 21.624C107.237 21.752 107.28 21.928 107.28 22.152C107.28 22.5787 107.179 22.9093 106.976 23.144C106.517 23.7093 106.016 24.1733 105.472 24.536C104.939 24.8987 104.331 25.08 103.648 25.08C102.709 25.08 102.011 24.6533 101.552 23.8C101.104 22.9467 100.88 21.8427 100.88 20.488C100.88 19.1867 101.045 17.704 101.376 16.04C101.717 14.376 102.213 12.9467 102.864 11.752C103.525 10.5573 104.309 9.96 105.216 9.96C105.728 9.96 106.128 10.2 106.416 10.68C106.715 11.1493 106.864 11.8267 106.864 12.712C106.864 13.9813 106.512 15.4533 105.808 17.128C105.104 18.8027 104.149 20.4613 102.944 22.104C103.019 22.5413 103.141 22.856 103.312 23.048C103.483 23.2293 103.707 23.32 103.984 23.32C104.421 23.32 104.805 23.1973 105.136 22.952C105.467 22.696 105.888 22.264 106.4 21.656C106.528 21.5067 106.672 21.432 106.832 21.432ZM104.864 11.544C104.619 11.544 104.341 11.9867 104.032 12.872C103.723 13.7573 103.451 14.856 103.216 16.168C102.981 17.48 102.853 18.7387 102.832 19.944C103.589 18.696 104.192 17.448 104.64 16.2C105.088 14.9413 105.312 13.7947 105.312 12.76C105.312 11.9493 105.163 11.544 104.864 11.544ZM108.083 16.488C107.635 16.488 107.299 16.3867 107.075 16.184C106.851 15.9707 106.739 15.6773 106.739 15.304C106.739 14.9307 106.883 14.6213 107.171 14.376C107.469 14.12 107.837 13.992 108.275 13.992C108.669 13.992 108.989 14.088 109.235 14.28C109.48 14.472 109.603 14.744 109.603 15.096C109.603 15.5227 109.464 15.864 109.187 16.12C108.909 16.3653 108.541 16.488 108.083 16.488ZM107.955 25.08C107.261 25.08 106.755 24.8347 106.435 24.344C106.125 23.8533 105.971 23.2027 105.971 22.392C105.971 21.912 106.029 21.2987 106.147 20.552C106.275 19.7947 106.435 19.0907 106.627 18.44C106.723 18.0987 106.851 17.864 107.011 17.736C107.171 17.608 107.427 17.544 107.779 17.544C108.323 17.544 108.595 17.7253 108.595 18.088C108.595 18.3547 108.493 18.9733 108.291 19.944C108.035 21.1173 107.907 21.912 107.907 22.328C107.907 22.648 107.949 22.8933 108.035 23.064C108.12 23.2347 108.264 23.32 108.467 23.32C108.659 23.32 108.899 23.1867 109.187 22.92C109.475 22.6533 109.859 22.232 110.339 21.656C110.467 21.5067 110.611 21.432 110.771 21.432C110.909 21.432 111.016 21.496 111.091 21.624C111.176 21.752 111.219 21.928 111.219 22.152C111.219 22.5787 111.117 22.9093 110.915 23.144C109.859 24.4347 108.872 25.08 107.955 25.08ZM117.06 21.432C117.199 21.432 117.306 21.496 117.38 21.624C117.466 21.752 117.508 21.928 117.508 22.152C117.508 22.5787 117.407 22.9093 117.204 23.144C116.746 23.7093 116.244 24.1733 115.7 24.536C115.156 24.8987 114.532 25.08 113.828 25.08C111.652 25.08 110.564 23.5493 110.564 20.488C110.564 20.0187 110.58 19.544 110.612 19.064H109.988C109.668 19.064 109.45 19.0053 109.332 18.888C109.226 18.7707 109.172 18.584 109.172 18.328C109.172 17.7307 109.412 17.432 109.892 17.432H110.804C110.986 16.2587 111.263 15.1867 111.636 14.216C112.01 13.2453 112.458 12.472 112.98 11.896C113.514 11.32 114.084 11.032 114.692 11.032C115.14 11.032 115.492 11.2293 115.748 11.624C116.004 12.0187 116.132 12.5147 116.132 13.112C116.132 14.7653 115.439 16.2053 114.052 17.432H115.844C116.015 17.432 116.138 17.4693 116.212 17.544C116.287 17.6187 116.324 17.7573 116.324 17.96C116.324 18.696 115.722 19.064 114.516 19.064H112.564C112.543 19.5973 112.532 20.0133 112.532 20.312C112.532 21.4213 112.66 22.2 112.916 22.648C113.183 23.096 113.599 23.32 114.164 23.32C114.623 23.32 115.028 23.1813 115.38 22.904C115.732 22.6267 116.148 22.2107 116.628 21.656C116.756 21.5067 116.9 21.432 117.06 21.432ZM114.26 12.568C114.1 12.568 113.919 12.7707 113.716 13.176C113.524 13.5707 113.338 14.1253 113.156 14.84C112.986 15.544 112.842 16.328 112.724 17.192C113.354 16.648 113.823 16.04 114.132 15.368C114.452 14.6853 114.612 14.0667 114.612 13.512C114.612 12.8827 114.495 12.568 114.26 12.568ZM121.934 21.912C122.072 21.912 122.179 21.976 122.254 22.104C122.339 22.232 122.382 22.408 122.382 22.632C122.382 23.016 122.291 23.3467 122.11 23.624C121.811 24.0827 121.416 24.44 120.926 24.696C120.446 24.952 119.87 25.08 119.198 25.08C118.174 25.08 117.379 24.776 116.814 24.168C116.248 23.5493 115.965 22.7173 115.965 21.672C115.965 20.936 116.12 20.2533 116.43 19.624C116.739 18.984 117.166 18.4773 117.71 18.104C118.264 17.7307 118.888 17.544 119.582 17.544C120.2 17.544 120.696 17.7307 121.07 18.104C121.443 18.4667 121.63 18.9627 121.63 19.592C121.63 20.328 121.363 20.9627 120.83 21.496C120.307 22.0187 119.411 22.4347 118.142 22.744C118.398 23.2347 118.83 23.48 119.438 23.48C119.875 23.48 120.232 23.3787 120.51 23.176C120.798 22.9733 121.128 22.632 121.502 22.152C121.63 21.992 121.774 21.912 121.934 21.912ZM119.31 19.112C118.915 19.112 118.579 19.3413 118.302 19.8C118.035 20.2587 117.902 20.8133 117.902 21.464V21.496C118.531 21.3467 119.027 21.1227 119.39 20.824C119.752 20.5253 119.934 20.1787 119.934 19.784C119.934 19.5813 119.875 19.4213 119.758 19.304C119.651 19.176 119.502 19.112 119.31 19.112Z" fill="white"/>
</svg>
